<?xml version="1.0" encoding="UTF-8"?>
<svg width="226px" height="33px" viewBox="0 0 226 33" version="1.1" xmlns="http://www.w3.org/2000/svg" xmlns:xlink="http://www.w3.org/1999/xlink">
    <!-- Generator: Sketch 52.5 (67469) - http://www.bohemiancoding.com/sketch -->
    <title>logo</title>
    <desc>Created with Sketch.</desc>
    <defs>
        <rect id="path-1" x="0" y="0" width="242.028" height="36.072"></rect>
        <mask id="mask-2" maskContentUnits="userSpaceOnUse" maskUnits="objectBoundingBox" x="0" y="0" width="242.028" height="36.072" fill="white">
            <use xlink:href="#path-1"></use>
        </mask>
        <mask id="mask-4" maskContentUnits="userSpaceOnUse" maskUnits="objectBoundingBox" x="0" y="0" width="242.028" height="36.072" fill="white">
            <use xlink:href="#path-1"></use>
        </mask>
        <linearGradient x1="50%" y1="-45.1494373%" x2="50%" y2="100%" id="linearGradient-5">
            <stop stop-color="#9DBDFF" offset="0%"></stop>
            <stop stop-color="#4C73FE" offset="100%"></stop>
        </linearGradient>
        <linearGradient x1="50%" y1="0%" x2="50%" y2="100%" id="linearGradient-6">
            <stop stop-color="#80A2FE" offset="0%"></stop>
            <stop stop-color="#4F76FE" offset="100%"></stop>
        </linearGradient>
        <path d="M14.6867985,33.2769676 L14.6867985,6.02038658 L30.961359,6.02038658 L30.961359,29.1752491 C31.1377779,31.9979512 29.6382399,33.365177 26.4627,33.2769676 L14.6867985,33.2769676 Z M2.5139565,15.4146451 L2.5139565,13.5622561 L11.908215,13.5622561 L11.908215,15.4146451 L8.3357505,15.4146451 L8.3357505,20.7071851 L12.5697825,20.7071851 L12.5697825,22.4272606 L8.3357505,22.4272606 L8.3357505,30.4983841 C9.835311,29.9691274 11.2025368,29.3075665 12.437469,28.5136816 L12.437469,30.4983841 C10.4968613,31.8215257 8.29165835,32.9241272 5.821794,33.8062216 L5.821794,22.4272606 L1.7200755,22.4272606 L1.7200755,20.7071851 L5.821794,20.7071851 L5.821794,15.4146451 L2.5139565,15.4146451 Z M17.3330685,31.5568921 L25.933446,31.5568921 C27.6094254,31.6451015 28.4032984,30.8512285 28.315089,29.1752491 L28.315089,24.6765901 L17.3330685,24.6765901 L17.3330685,31.5568921 Z M17.3330685,16.2085261 L17.3330685,22.9565146 L28.315089,22.9565146 L28.315089,16.2085261 L17.3330685,16.2085261 Z M17.3330685,7.87277558 L17.3330685,14.4884506 L28.315089,14.4884506 L28.315089,7.87277558 L17.3330685,7.87277558 Z M1.587762,12.3714346 L1.587762,10.7836726 C3.88120747,9.37232152 5.24843329,7.12301451 5.6894805,4.03568408 L8.3357505,4.03568408 C8.07112218,5.18240681 7.76239376,6.24090422 7.409556,7.21120808 L12.5697825,7.21120808 L12.5697825,8.93128358 L6.351048,8.93128358 C5.46895359,10.1662158 3.88120747,11.3129213 1.587762,12.3714346 Z M47.5005465,8.66665658 L47.5005465,6.81426758 L50.1468165,6.81426758 L50.1468165,4.16799758 L52.660773,4.16799758 L52.660773,6.81426758 L61.658091,6.81426758 L61.658091,4.16799758 L64.1720475,4.16799758 L64.1720475,6.81426758 L67.215258,6.81426758 L67.215258,8.66665658 L64.1720475,8.66665658 L64.1720475,15.2823316 C64.3484664,17.6639865 63.1135528,18.810692 60.4672695,18.7224826 L58.482567,18.7224826 L58.482567,22.0303201 L67.3475715,22.0303201 L67.3475715,23.8827091 L62.3196585,23.8827091 C62.6724963,27.1464584 64.2602424,29.6162857 67.0829445,31.2922651 L67.0829445,33.0123406 C62.9371008,31.3363612 60.5554816,28.2931811 59.9380155,23.8827091 L58.482567,23.8827091 L58.482567,34.4677891 L55.836297,34.4677891 L55.836297,23.8827091 L54.513162,23.8827091 C53.895696,28.2931811 51.6463889,31.3363612 47.7651735,33.0123406 L47.7651735,31.2922651 C50.3232473,29.6162857 51.7786813,27.1464584 52.131519,23.8827091 L47.103606,23.8827091 L47.103606,22.0303201 L55.836297,22.0303201 L55.836297,18.7224826 L50.1468165,18.7224826 L50.1468165,8.66665658 L47.5005465,8.66665658 Z M36.518526,10.3867321 L36.518526,8.66665658 L37.841661,8.66665658 L37.841661,4.03568408 L40.0909905,4.03568408 L40.0909905,8.66665658 L43.7957685,8.66665658 L43.7957685,4.03568408 L46.045098,4.03568408 L46.045098,8.66665658 L47.2359195,8.66665658 L47.2359195,10.3867321 L46.045098,10.3867321 L46.045098,17.7962881 C46.1333075,22.9124357 45.1630182,26.7053847 43.134201,29.1752491 C43.7516671,30.0573435 45.0747889,31.204049 47.103606,32.6154001 L47.103606,34.3354756 C44.9865795,33.012334 43.2224171,31.7774203 41.811066,30.6306976 C40.399715,31.7774203 38.5032404,33.012334 36.1215855,34.3354756 L36.1215855,32.6154001 C38.3268216,31.204049 39.7822555,30.0573435 40.487931,29.1752491 C38.6355328,26.7935942 37.7534516,23.0006451 37.841661,17.7962881 L37.841661,10.3867321 L36.518526,10.3867321 Z M41.811066,27.4551736 C43.2224171,25.338147 43.883978,22.1626547 43.7957685,17.9286016 L43.7957685,10.3867321 L40.0909905,10.3867321 L40.0909905,17.9286016 C40.0027811,22.2508642 40.5761339,25.4263564 41.811066,27.4551736 Z M59.9380155,16.8700936 C61.1729477,16.958303 61.7463005,16.3849503 61.658091,15.1500181 L61.658091,13.5622561 L52.660773,13.5622561 L52.660773,16.8700936 L59.9380155,16.8700936 Z M52.660773,8.66665658 L52.660773,11.9744941 L61.658091,11.9744941 L61.658091,8.66665658 L52.660773,8.66665658 Z M75.9479491,33.8062216 L75.9479491,20.3102446 L97.7796766,20.3102446 L97.7796766,30.1014436 C97.867886,32.6595174 96.4565561,33.894431 93.5456446,33.8062216 L75.9479491,33.8062216 Z M88.7823586,17.5316611 L88.7823586,5.88807308 L100.55826,5.88807308 L100.55826,13.8268831 C100.64647,16.3849569 99.3674518,17.6198705 96.7211686,17.5316611 L88.7823586,17.5316611 Z M87.3269101,19.6486771 C83.710323,18.5901638 81.2404957,17.0465217 79.9173541,15.0177046 C78.5942125,17.0465217 75.9479689,18.6342678 71.9785441,19.7809906 L71.9785441,18.1932286 C75.3305028,16.9582964 77.4033936,15.2823422 78.1972786,13.1653156 L71.8462306,13.1653156 L71.8462306,11.5775536 L78.5942191,11.5775536 L78.5942191,10.7836726 C78.6824285,10.3426254 78.7265326,9.9897929 78.7265326,9.72516458 L78.7265326,7.60814858 L76.0802626,7.60814858 C75.1981682,8.49024299 73.6986302,9.15180387 71.5816036,9.59285108 L71.5816036,8.26971608 C73.9632585,7.47583111 75.2863803,5.9762931 75.5510086,3.77105708 L78.0649651,3.77105708 C77.8003368,4.65315149 77.5357124,5.40292049 77.2710841,6.02038658 L86.4007156,6.02038658 L86.4007156,7.60814858 L81.2404891,7.60814858 L81.2404891,9.19591058 C81.2404891,10.078005 81.152281,10.871878 80.9758621,11.5775536 L87.3269101,11.5775536 L87.3269101,13.1653156 L81.2404891,13.1653156 C82.3872118,15.3705516 84.4159985,17.0465058 87.3269101,18.1932286 L87.3269101,19.6486771 Z M78.5942191,31.9538326 L93.1487041,31.9538326 C94.5600551,32.042042 95.221616,31.3804811 95.1334066,29.9691301 L95.1334066,27.8521141 L78.5942191,27.8521141 L78.5942191,31.9538326 Z M78.5942191,22.0303201 L78.5942191,26.2643521 L95.1334066,26.2643521 L95.1334066,22.0303201 L78.5942191,22.0303201 Z M91.2963151,15.9438991 L96.0596011,15.9438991 C97.4709521,16.0321085 98.132513,15.2823395 98.0443036,13.6945696 L98.0443036,7.60814858 L91.2963151,7.60814858 L91.2963151,15.9438991 Z M137.076786,34.3354756 C132.578105,33.1005434 129.04978,31.6010054 126.491706,29.8368166 C123.845423,31.4245865 120.361202,32.9241245 116.03894,34.3354756 L116.03894,32.7477136 C116.303568,32.6595041 116.700504,32.4830879 117.229761,32.2184596 C120.934558,30.7188991 123.448489,29.4398814 124.771631,28.3813681 C122.654604,26.5289698 120.758129,23.70631 119.08215,19.9133041 L121.993047,19.9133041 C123.316189,22.7360062 124.815727,25.0735213 126.491706,26.9259196 C128.696942,24.9853119 130.461104,22.2949643 131.784246,18.8547961 L118.023642,18.8547961 L118.023642,17.0024071 L134.827457,17.0024071 L134.827457,18.8547961 C133.151477,22.9124304 130.990378,26.1320267 128.344095,28.5136816 C130.108284,29.9250326 133.019152,31.2922585 137.076786,32.6154001 L137.076786,34.3354756 Z M106.512368,11.0482996 L106.512368,9.32822408 L110.614086,9.32822408 L110.614086,4.16799758 L113.260356,4.16799758 L113.260356,9.32822408 L116.700507,9.32822408 L116.700507,11.0482996 L113.260356,11.0482996 L113.260356,18.8547961 C113.613194,18.6783772 114.098339,18.501961 114.715805,18.3255421 C115.50969,18.0609138 116.127146,17.8403935 116.568194,17.6639746 L116.568194,19.5163636 C116.215356,19.604573 115.774315,19.7809893 115.245059,20.0456176 L113.260356,20.8394986 L113.260356,30.8953246 C113.260356,33.0123512 112.113651,34.0708486 109.820205,34.0708486 L107.173935,34.0708486 L107.173935,32.2184596 L109.026324,32.2184596 C110.084837,32.2184596 110.614086,31.777419 110.614086,30.8953246 L110.614086,21.6333796 C110.349458,21.721589 109.864313,21.8097971 109.158638,21.8980066 C108.011915,22.1626349 107.08573,22.3831552 106.380054,22.5595741 L106.380054,20.3102446 C107.967824,20.0456163 109.379154,19.7809919 110.614086,19.5163636 L110.614086,11.0482996 L106.512368,11.0482996 Z M133.239695,14.7530776 C131.034459,14.7530776 129.931857,13.6945802 129.931857,11.5775536 L129.931857,7.21120808 L122.786928,7.21120808 L122.786928,9.85747808 C123.051556,12.9448085 121.110978,14.841283 116.965134,15.5469586 L116.965134,14.0915101 C119.346789,13.3858345 120.44939,11.9745047 120.272972,9.85747808 L120.272972,5.35881908 L132.578127,5.35881908 L132.578127,11.3129266 C132.578127,12.5478588 133.107376,13.1212115 134.165889,13.0330021 L136.812159,13.0330021 L136.812159,14.7530776 L133.239695,14.7530776 Z" id="path-7"></path>
    </defs>
    <g id="Vision" stroke="none" stroke-width="1" fill="none" fill-rule="evenodd">
        <g id="资源筛选" transform="translate(-21.000000, -21.000000)">
            <g id="logo" transform="translate(20.000000, 18.000000)">
                <mask id="mask-3" fill="white">
                    <use xlink:href="#path-1"></use>
                </mask>
                <g id="Mask" stroke="#FFFFFF" mask="url(#mask-2)" stroke-width="1.08" opacity="0" stroke-dasharray="1.080000042915344">
                    <use mask="url(#mask-4)" xlink:href="#path-1"></use>
                </g>
                <g id="Group-9" transform="translate(144.000000, 9.036000)" fill="#FFFFFF">
                    <g id="Group-3" transform="translate(0.720000, 0.000000)">
                        <text id="京东数科旗下" font-family="PingFangSC-Regular, PingFang SC" font-size="10.692" font-weight="normal" letter-spacing="3.38370388">
                            <tspan x="0" y="11.288684">京东数科旗下</tspan>
                        </text>
                        <text id="京东钼媒产品" font-family="PingFangSC-Regular, PingFang SC" font-size="8.12592" font-weight="normal" letter-spacing="6.43822947">
                            <tspan x="0" y="25.1815255">京东钼媒产</tspan>
                            <tspan x="72.8207473" y="25.1815255" letter-spacing="6.79590912">品</tspan>
                        </text>
                        <rect id="Rectangle" x="0" y="13.3096446" width="81.4781722" height="1"></rect>
                    </g>
                </g>
                <g id="钼媒智投">
                    <use fill="#FFFFFF" xlink:href="#path-7"></use>
                    <use fill="url(#linearGradient-5)" xlink:href="#path-7"></use>
                </g>
            </g>
        </g>
    </g>
</svg>